<svg id="图层_1" data-name="图层 1" xmlns="http://www.w3.org/2000/svg" xmlns:xlink="http://www.w3.org/1999/xlink" viewBox="0 0 60 60"><defs><style>.cls-1,.cls-2{fill:none;}.cls-2,.cls-3{clip-rule:evenodd;}.cls-3,.cls-90,.cls-92{fill:#1bbbf9;}.cls-4{clip-path:url(#clip-path);}.cls-5{fill:#2446f3;}.cls-6{fill:#3175f5;}.cls-7{fill:#67c7f8;}.cls-8{fill:#fff;}.cls-9{clip-path:url(#clip-path-2);}.cls-10{clip-path:url(#clip-path-3);}.cls-11{clip-path:url(#clip-path-4);}.cls-12{clip-path:url(#clip-path-5);}.cls-13{clip-path:url(#clip-path-6);}.cls-14{clip-path:url(#clip-path-7);}.cls-15{clip-path:url(#clip-path-8);}.cls-16{clip-path:url(#clip-path-9);}.cls-17{clip-path:url(#clip-path-10);}.cls-18{clip-path:url(#clip-path-11);}.cls-19{clip-path:url(#clip-path-12);}.cls-20{clip-path:url(#clip-path-13);}.cls-21{clip-path:url(#clip-path-14);}.cls-22{clip-path:url(#clip-path-15);}.cls-23{clip-path:url(#clip-path-16);}.cls-24{clip-path:url(#clip-path-17);}.cls-25{clip-path:url(#clip-path-18);}.cls-26{clip-path:url(#clip-path-19);}.cls-27{clip-path:url(#clip-path-20);}.cls-28{clip-path:url(#clip-path-21);}.cls-29{clip-path:url(#clip-path-22);}.cls-30{clip-path:url(#clip-path-23);}.cls-31{clip-path:url(#clip-path-24);}.cls-32{clip-path:url(#clip-path-25);}.cls-33{clip-path:url(#clip-path-26);}.cls-34{clip-path:url(#clip-path-27);}.cls-35{clip-path:url(#clip-path-28);}.cls-36{clip-path:url(#clip-path-29);}.cls-37{clip-path:url(#clip-path-30);}.cls-38{clip-path:url(#clip-path-31);}.cls-39{clip-path:url(#clip-path-32);}.cls-40{clip-path:url(#clip-path-33);}.cls-41{clip-path:url(#clip-path-34);}.cls-42{clip-path:url(#clip-path-35);}.cls-43{clip-path:url(#clip-path-36);}.cls-44{clip-path:url(#clip-path-37);}.cls-45{clip-path:url(#clip-path-38);}.cls-46{clip-path:url(#clip-path-39);}.cls-47{clip-path:url(#clip-path-40);}.cls-48{clip-path:url(#clip-path-41);}.cls-49{clip-path:url(#clip-path-42);}.cls-50{clip-path:url(#clip-path-43);}.cls-51{clip-path:url(#clip-path-45);}.cls-52{clip-path:url(#clip-path-46);}.cls-53{clip-path:url(#clip-path-47);}.cls-54{clip-path:url(#clip-path-48);}.cls-55{clip-path:url(#clip-path-49);}.cls-56{clip-path:url(#clip-path-50);}.cls-57{clip-path:url(#clip-path-51);}.cls-58{clip-path:url(#clip-path-52);}.cls-59{clip-path:url(#clip-path-53);}.cls-60{clip-path:url(#clip-path-54);}.cls-61{clip-path:url(#clip-path-55);}.cls-62{clip-path:url(#clip-path-56);}.cls-63{clip-path:url(#clip-path-57);}.cls-64{clip-path:url(#clip-path-58);}.cls-65{clip-path:url(#clip-path-59);}.cls-66{clip-path:url(#clip-path-60);}.cls-67{clip-path:url(#clip-path-61);}.cls-68{clip-path:url(#clip-path-62);}.cls-69{clip-path:url(#clip-path-63);}.cls-70{clip-path:url(#clip-path-64);}.cls-71{clip-path:url(#clip-path-65);}.cls-72{clip-path:url(#clip-path-66);}.cls-73{clip-path:url(#clip-path-67);}.cls-74{clip-path:url(#clip-path-68);}.cls-75{clip-path:url(#clip-path-69);}.cls-76{clip-path:url(#clip-path-70);}.cls-77{clip-path:url(#clip-path-71);}.cls-78{clip-path:url(#clip-path-72);}.cls-79{clip-path:url(#clip-path-73);}.cls-80{clip-path:url(#clip-path-74);}.cls-81{clip-path:url(#clip-path-75);}.cls-82{clip-path:url(#clip-path-76);}.cls-83{clip-path:url(#clip-path-77);}.cls-84{clip-path:url(#clip-path-78);}.cls-85{clip-path:url(#clip-path-79);}.cls-86{clip-path:url(#clip-path-80);}.cls-87{clip-path:url(#clip-path-81);}.cls-88{clip-path:url(#clip-path-82);}.cls-89{clip-path:url(#clip-path-83);}.cls-90{fill-rule:evenodd;}.cls-91{clip-path:url(#clip-path-84);}.cls-93{clip-path:url(#clip-path-85);}.cls-94{clip-path:url(#clip-path-86);}.cls-95{clip-path:url(#clip-path-87);}.cls-96{clip-path:url(#clip-path-88);}.cls-97{clip-path:url(#clip-path-89);}.cls-98{clip-path:url(#clip-path-90);}.cls-99{clip-path:url(#clip-path-91);}.cls-100{clip-path:url(#clip-path-92);}.cls-101{clip-path:url(#clip-path-93);}.cls-102{clip-path:url(#clip-path-94);}.cls-103{clip-path:url(#clip-path-95);}.cls-104{clip-path:url(#clip-path-96);}.cls-105{clip-path:url(#clip-path-97);}.cls-106{clip-path:url(#clip-path-98);}.cls-107{clip-path:url(#clip-path-99);}.cls-108{clip-path:url(#clip-path-100);}.cls-109{clip-path:url(#clip-path-101);}.cls-110{clip-path:url(#clip-path-102);}.cls-111{clip-path:url(#clip-path-103);}.cls-112{clip-path:url(#clip-path-104);}.cls-113{clip-path:url(#clip-path-105);}.cls-114{clip-path:url(#clip-path-106);}.cls-115{clip-path:url(#clip-path-107);}.cls-116{clip-path:url(#clip-path-108);}.cls-117{clip-path:url(#clip-path-109);}.cls-118{clip-path:url(#clip-path-110);}.cls-119{clip-path:url(#clip-path-111);}.cls-120{clip-path:url(#clip-path-112);}.cls-121{clip-path:url(#clip-path-113);}.cls-122{clip-path:url(#clip-path-114);}.cls-123{clip-path:url(#clip-path-115);}.cls-124{clip-path:url(#clip-path-116);}.cls-125{clip-path:url(#clip-path-117);}.cls-126{clip-path:url(#clip-path-118);}.cls-127{clip-path:url(#clip-path-119);}.cls-128{clip-path:url(#clip-path-120);}.cls-129{clip-path:url(#clip-path-121);}.cls-130{clip-path:url(#clip-path-122);}.cls-131{clip-path:url(#clip-path-123);}.cls-132{clip-path:url(#clip-path-124);}.cls-133{clip-path:url(#clip-path-125);}.cls-134{clip-path:url(#clip-path-126);}.cls-135{clip-path:url(#clip-path-127);}.cls-136{clip-path:url(#clip-path-128);}.cls-137{clip-path:url(#clip-path-129);}.cls-138{clip-path:url(#clip-path-130);}.cls-139{clip-path:url(#clip-path-131);}.cls-140{clip-path:url(#clip-path-132);}.cls-141{clip-path:url(#clip-path-133);}.cls-142{clip-path:url(#clip-path-134);}.cls-143{clip-path:url(#clip-path-135);}.cls-144{clip-path:url(#clip-path-136);}.cls-145{clip-path:url(#clip-path-137);}.cls-146{clip-path:url(#clip-path-138);}.cls-147{clip-path:url(#clip-path-139);}.cls-148{clip-path:url(#clip-path-140);}.cls-149{clip-path:url(#clip-path-141);}.cls-150{clip-path:url(#clip-path-142);}.cls-151{clip-path:url(#clip-path-143);}.cls-152{clip-path:url(#clip-path-144);}.cls-153{clip-path:url(#clip-path-145);}.cls-154{clip-path:url(#clip-path-146);}.cls-155{clip-path:url(#clip-path-147);}.cls-156{clip-path:url(#clip-path-148);}.cls-157{clip-path:url(#clip-path-149);}.cls-158{clip-path:url(#clip-path-150);}.cls-159{clip-path:url(#clip-path-151);}.cls-160{clip-path:url(#clip-path-152);}.cls-161{clip-path:url(#clip-path-153);}.cls-162{clip-path:url(#clip-path-154);}.cls-163{clip-path:url(#clip-path-155);}.cls-164{clip-path:url(#clip-path-156);}.cls-165{clip-path:url(#clip-path-157);}.cls-166{clip-path:url(#clip-path-158);}</style><clipPath id="clip-path"><rect class="cls-1" x="4.08" y="8" width="51.84" height="45"/></clipPath><clipPath id="clip-path-2"><path class="cls-1" d="M-64,288.9a25.09,25.09,0,0,0,9-1.65l4.54,4.66A31,31,0,0,1-64,295a31,31,0,0,1-13.72-3.19l4.53-4.64A25.09,25.09,0,0,0-64,288.9Z"/></clipPath><clipPath id="clip-path-3"><rect class="cls-1" x="-88.53" y="255" width="4" height="8" transform="translate(-281.38 67.69) rotate(-64)"/></clipPath><clipPath id="clip-path-4"><rect class="cls-1" x="-45.53" y="278" width="4" height="8" transform="translate(-277.91 119.26) rotate(-64)"/></clipPath><clipPath id="clip-path-5"><path class="cls-1" d="M-48.89,248.71A26.42,26.42,0,0,1-42,280l-.18.38h-.56l-44-23.39a26,26,0,0,1,6.5-8.28A24.37,24.37,0,0,1-48.89,248.71Z"/></clipPath><clipPath id="clip-path-6"><circle class="cls-1" cx="-65.03" cy="268.5" r="20.5"/></clipPath><clipPath id="clip-path-7"><path class="cls-1" d="M-60.09,286.42c-.09-.46-.5-.71-1.24-.51.59-2.53.88-3.95,2.12-5a1.68,1.68,0,0,0-1.15-3.08c-1.08.16-.4-1.33-1.36-1.41s-2.22-2-3.6-2.65c-.73-.35-1.45-1.28-2.58-1.32s-2.47.85-2.47.16a42.39,42.39,0,0,0-.27-4.39c0-.5-.33-.17,1-.14.74,0,.38-1.48,1.11-1.54s2.43.67,2.86.38,3,6.73,3,1.16c0-.66-.34-1.81,0-2.44,1.36-2.48,2.63-4.49,2.51-4.79a3.73,3.73,0,0,0-2.45.05c-.36.12.11.68-.4.8-1.92.44-3.62-.52-3-1.42s2.82-.4,3-2.26c.11-1.06.2-2.3.27-3.21,2.59.4,2.3-3.36-1.54-3.76a18,18,0,0,1,16.79,12.08.73.73,0,0,0-.43-.2c-1.17-2.9-4-.8-3,1.76-5.13,3.94-3.82,6.69-2.13,8.26a15.27,15.27,0,0,1,2.28,3c-.6,1.75,2.21,1,3.59-1.92A18,18,0,0,1-60.1,286.42ZM-82.53,269a18,18,0,0,1,.38-3.71c.78.83,2.61.81,3.06-.43.8.48,1.87.56,1.87,1.51,0,3.14.11,6.51,3,6.56a4.07,4.07,0,0,1,2.31,2.44c.25.65,1.23,0,2.31,0,.54,0,0,.91,0,2.87s4.22,5,4.22,5a22.68,22.68,0,0,0,.14,3.17,7,7,0,0,0-2.38.32A18,18,0,0,1-82.53,269Zm36,.3a20.43,20.43,0,0,0-.41-3.07c0-.36,0-.69,0-1a18,18,0,0,1,.4,3.77v.3Zm3-.3a21,21,0,0,0-20.12-21,21,21,0,0,0-21.81,19.22A21,21,0,0,0-67.14,289.8,10.52,10.52,0,0,0-65,290a6.59,6.59,0,0,0,.69,0A21,21,0,0,0-43.53,269Z"/></clipPath><clipPath id="clip-path-8"><rect class="cls-1" x="4" y="246" width="52" height="37"/></clipPath><clipPath id="clip-path-9"><rect class="cls-1" x="4" y="246" width="52" height="4"/></clipPath><clipPath id="clip-path-10"><path class="cls-1" d="M24.49,292.45a1.55,1.55,0,0,0-.44-.15,1.78,1.78,0,0,0-.38,0h-.18a1.6,1.6,0,0,0-.47.14L17.76,295v-8l1.28.17,3.85,2a1.7,1.7,0,0,0,1.55,0l3.85-1.94,1.58-.18V295Z"/></clipPath><clipPath id="clip-path-11"><path class="cls-1" d="M50.44,258.74H41.07a1.27,1.27,0,1,0,0,2.52h9.37a1.27,1.27,0,1,0,0-2.52Zm0,6.32H41.07a1.42,1.42,0,0,0-1.21.63,1.16,1.16,0,0,0,0,1.26,1.42,1.42,0,0,0,1.21.63h9.37a1.27,1.27,0,1,0,0-2.52Z"/></clipPath><clipPath id="clip-path-12"><path class="cls-1" d="M36.08,279.85a1.86,1.86,0,0,0-.35.82l-1,5.74-5.77.88a1.86,1.86,0,0,0-.82.34L23.38,291l-4.69-3.47a1.86,1.86,0,0,0-.82-.35l-5.75-1-.87-5.78a1.86,1.86,0,0,0-.34-.82l-3.37-4.77,3.46-4.7a1.86,1.86,0,0,0,.35-.82l1-5.76,5.77-.88a1.86,1.86,0,0,0,.82-.34L23.7,259l4.69,3.47a1.86,1.86,0,0,0,.82.35l5.75,1,.87,5.83a1.86,1.86,0,0,0,.34.82l3.37,4.77Z"/></clipPath><clipPath id="clip-path-13"><path class="cls-2" d="M23.7,259l4.69,3.47a1.86,1.86,0,0,0,.82.35l5.75,1,.87,5.83a1.86,1.86,0,0,0,.34.82l3.37,4.77-3.46,4.62a1.86,1.86,0,0,0-.35.82l-.4,2.32H11.63l-.39-2.55a1.86,1.86,0,0,0-.34-.82l-3.37-4.77,3.46-4.7a1.86,1.86,0,0,0,.35-.82l1-5.76,5.77-.88a1.86,1.86,0,0,0,.82-.34Z"/></clipPath><clipPath id="clip-path-14"><path class="cls-1" d="M146.9,242H115.33a1.12,1.12,0,0,0-1.21,1.16V286H146.9a1.12,1.12,0,0,0,1.21-1.16V243.16A1.12,1.12,0,0,0,146.9,242Z"/></clipPath><clipPath id="clip-path-15"><path class="cls-1" d="M135.75,249h-32.5a1.14,1.14,0,0,0-1.25,1.16v41.68a1.14,1.14,0,0,0,1.25,1.16,1.18,1.18,0,0,0,.88-.35l5.25-3.94,4.25,3.94a1.28,1.28,0,0,0,1.75,0l4.13-3.82,4.13,3.82a1.28,1.28,0,0,0,1.75,0l4.25-3.94,5.25,3.94a1.18,1.18,0,0,0,.88.35,1.14,1.14,0,0,0,1.25-1.16V250.16A1.14,1.14,0,0,0,135.75,249Z"/></clipPath><clipPath id="clip-path-16"><path class="cls-1" d="M135.75,249a1.09,1.09,0,0,1,1.14,1.16V286H114.11V249Z"/></clipPath><clipPath id="clip-path-17"><rect class="cls-1" x="109.56" y="253.59" width="14" height="11.59"/></clipPath><clipPath id="clip-path-18"><rect class="cls-1" x="130.06" y="253.59" width="2.28" height="11.59"/></clipPath><clipPath id="clip-path-19"><rect class="cls-1" x="125.5" y="253.59" width="2.28" height="11.59"/></clipPath><clipPath id="clip-path-20"><rect class="cls-1" x="109.56" y="269.82" width="11.39" height="2.32"/></clipPath><clipPath id="clip-path-21"><rect class="cls-1" x="109.56" y="274.45" width="22.78" height="2.32"/></clipPath><clipPath id="clip-path-22"><rect class="cls-1" x="109.56" y="279.09" width="15.94" height="2.32"/></clipPath><clipPath id="clip-path-23"><polygon class="cls-2" points="191 243 219.49 243 231 254.95 231 287 191 287 191 243"/></clipPath><clipPath id="clip-path-24"><path class="cls-2" d="M227.5,263a15.55,15.55,0,0,1,3.5.4V287H214.54a15.5,15.5,0,0,1,13-24Z"/></clipPath><clipPath id="clip-path-25"><rect class="cls-1" x="195" y="248" width="13" height="10"/></clipPath><clipPath id="clip-path-26"><rect class="cls-1" x="195" y="262" width="22" height="3"/></clipPath><clipPath id="clip-path-27"><rect class="cls-1" x="195" y="269" width="16" height="3"/></clipPath><clipPath id="clip-path-28"><rect class="cls-1" x="195" y="276" width="13" height="3"/></clipPath><clipPath id="clip-path-29"><polygon class="cls-2" points="219.49 243 219.49 255.01 231 255.01 219.49 243"/></clipPath><clipPath id="clip-path-30"><path class="cls-1" d="M227.65,271.76a6.42,6.42,0,1,0,6.79,6.41A6.62,6.62,0,0,0,227.65,271.76Zm0-1.76a8.71,8.71,0,0,1,7.8,4.64,7.8,7.8,0,0,1-1.06,8.65l2.61,2.46L235.68,287l-2.61-2.46a9.06,9.06,0,0,1-10.28.4,7.94,7.94,0,0,1-3.42-9.16A8.61,8.61,0,0,1,227.65,270Z"/></clipPath><clipPath id="clip-path-31"><path class="cls-1" d="M-52,362.13V345.38A1.38,1.38,0,0,0-53.38,344H-89.62A1.38,1.38,0,0,0-91,345.38v26.23A1.38,1.38,0,0,0-89.62,373H-68C-53.38,373-52,371.62-52,362.13Z"/></clipPath><clipPath id="clip-path-32"><rect class="cls-1" x="-69.6" y="357.48" width="13.95" height="2.11"/></clipPath><clipPath id="clip-path-33"><rect class="cls-1" x="-69.6" y="351" width="13.95" height="2.11"/></clipPath><clipPath id="clip-path-34"><path class="cls-1" d="M-65.46,364H-69.6v2.11h2.73A10.42,10.42,0,0,1-65.46,364Z"/></clipPath><clipPath id="clip-path-35"><path class="cls-1" d="M-74.49,362.19c2.17,1,2.83.93,2.83,2.78,0,.2,0,.28,0,.32H-87s0,.23,0-.32c0-1.85.66-1.76,2.83-2.78.74-.35,3.07-1.37,3.07-1.37a2.14,2.14,0,0,0,0-.91,4.12,4.12,0,0,1-1.18-2.28c-.51-.23-.66-1.19-.71-1.37s0-.62.39-.65a3,3,0,0,1-.15-.95c0-.08,0-.15,0-.23s0-.15,0-.23c0-1.76,1.53-2.73,3.42-2.73s3.42,1,3.42,2.73c0,.08,0,.15,0,.23s0,.15,0,.23a3,3,0,0,1-.15.95c.34,0,.43.49.39.65s-.2,1.14-.71,1.37a4.11,4.11,0,0,1-1.18,2.28,1.7,1.7,0,0,0,0,.91S-75.22,361.85-74.49,362.19Z"/></clipPath><clipPath id="clip-path-36"><ellipse class="cls-1" cx="-57.41" cy="370.69" rx="8.41" ry="8.31"/></clipPath><clipPath id="clip-path-37"><path class="cls-1" d="M-54.53,374.27l-.75-2.6,2.05-1.65a.68.68,0,0,0,.19-.27.43.43,0,0,0,0-.34.62.62,0,0,0-.19-.29.52.52,0,0,0-.33-.1l-2.59-.07-.86-2.56a.52.52,0,0,0-.19-.27.6.6,0,0,0-.33-.12.48.48,0,0,0-.3.12.76.76,0,0,0-.21.27l-.86,2.55-2.59.07a.67.67,0,0,0-.3.12.48.48,0,0,0-.19.29.44.44,0,0,0,0,.34.62.62,0,0,0,.16.27h0l2.05,1.65-.75,2.6a.57.57,0,0,0,0,.34.5.5,0,0,0,.19.27.45.45,0,0,0,.3.1h0a.5.5,0,0,0,.3-.1l2.14-1.53,2.14,1.53a.43.43,0,0,0,.28.1h0a.73.73,0,0,0,.3-.1h0a.87.87,0,0,0,.19-.29A.54.54,0,0,0-54.53,374.27Z"/></clipPath><clipPath id="clip-path-38"><ellipse class="cls-1" cx="25.2" cy="376.6" rx="17.2" ry="6.4"/></clipPath><clipPath id="clip-path-39"><ellipse class="cls-1" cx="24.8" cy="376.2" rx="5.6" ry="2"/></clipPath><clipPath id="clip-path-40"><path class="cls-1" d="M24.8,339a14.4,14.4,0,0,0-14.4,14.39c0,8,14.39,24,14.39,24s14.41-16,14.41-24A14.41,14.41,0,0,0,24.8,339Z"/></clipPath><clipPath id="clip-path-41"><path class="cls-1" d="M25.56,363a9.6,9.6,0,1,1,6.81-2.8A9.6,9.6,0,0,1,25.56,363Z"/></clipPath><clipPath id="clip-path-42"><path class="cls-1" d="M25.18,349.4a4.4,4.4,0,1,0,4.42,4.41,4.4,4.4,0,0,0-4.42-4.41Z"/></clipPath><clipPath id="clip-path-43"><circle class="cls-1" cx="-65" cy="485" r="26"/></clipPath><clipPath id="clip-path-45"><circle class="cls-1" cx="-65" cy="485" r="19"/></clipPath><clipPath id="clip-path-46"><path class="cls-1" d="M-56,470.26a2.26,2.26,0,0,0,1.13,2,2.26,2.26,0,0,0,2.26,0,2.26,2.26,0,0,0,1.13-2,2.26,2.26,0,0,0-1.13-2,2.26,2.26,0,0,0-2.26,0A2.26,2.26,0,0,0-56,470.26Z"/></clipPath><clipPath id="clip-path-47"><path class="cls-1" d="M-56.87,476.13a4,4,0,0,1,5.35,1.37A3.67,3.67,0,0,1-53,482.62c-3.39,1.88-8.66,1.33-12.13,2.38C-62.37,482.63-60.26,478-56.87,476.13ZM-69,473.75A3.83,3.83,0,0,1-65.09,470a3.83,3.83,0,0,1,3.91,3.75c0,3.75-3.13,7.85-3.91,11.25C-65.87,481.57-69,477.5-69,473.75Z"/></clipPath><clipPath id="clip-path-48"><path class="cls-1" d="M-52.95,487.28a3.46,3.46,0,0,1,1.42,4.92,4.07,4.07,0,0,1-5.31,1.32c-3.37-1.8-5.5-6.26-8.16-8.52C-61.53,486-56.32,485.48-52.95,487.28Z"/></clipPath><clipPath id="clip-path-49"><path class="cls-1" d="M-61,496.25A3.88,3.88,0,0,1-65,500a3.88,3.88,0,0,1-4-3.75c0-3.75,3.2-7.85,4-11.25C-64.2,488.43-61,492.5-61,496.25Z"/></clipPath><clipPath id="clip-path-50"><path class="cls-1" d="M-77.05,482.09a3.75,3.75,0,0,1-1.42-5.19,3.94,3.94,0,0,1,5.31-1.39c3.37,1.9,5.5,6.61,8.16,9C-68.47,483.42-73.68,484-77.05,482.09Zm3.89,11.4a3.94,3.94,0,0,1-5.31-1.39,3.75,3.75,0,0,1,1.42-5.19c3.37-1.9,8.61-1.35,12.05-2.41C-67.7,486.9-69.79,491.59-73.16,493.49Z"/></clipPath><clipPath id="clip-path-51"><polygon class="cls-2" points="25.51 478.01 19.45 490.58 0.01 492.29 5 481.65 25.51 478.01"/></clipPath><clipPath id="clip-path-52"><polygon class="cls-2" points="24.49 478.01 30.55 490.58 49.99 492.29 45.01 481.65 24.49 478.01"/></clipPath><clipPath id="clip-path-53"><polygon class="cls-2" points="25.11 478.01 25.11 509.63 5.11 505.28 5.11 491.83 19.45 490.58 25.11 478.01"/></clipPath><clipPath id="clip-path-54"><polygon class="cls-2" points="25 478.01 24.91 509.63 45.91 505.28 45.91 491.89 30.55 490.58 25 478.01"/></clipPath><clipPath id="clip-path-55"><polygon class="cls-1" points="28.42 461 20.82 461 17.02 467.6 20.82 474.2 28.42 474.2 32.22 467.6 28.42 461"/></clipPath><clipPath id="clip-path-56"><polygon class="cls-1" points="26.62 464.6 22.62 464.6 20.62 467.6 22.62 470.6 26.62 470.6 28.62 467.6 26.62 464.6"/></clipPath><clipPath id="clip-path-57"><path class="cls-2" d="M28.62,474.2q3.21.78,4.33,2.29a12.25,12.25,0,0,1,1.71,3.19l10.34,2q1-9.63-5.15-14.05A59.09,59.09,0,0,0,28.62,461l3.6,6.6Z"/></clipPath><clipPath id="clip-path-58"><path class="cls-2" d="M20.52,474.2q-3.21.78-4.33,2.29a12.25,12.25,0,0,0-1.71,3.19l-10.34,2q-1-9.63,5.15-14.05A59.09,59.09,0,0,1,20.52,461l-3.6,6.6Z"/></clipPath><clipPath id="clip-path-59"><polygon class="cls-1" points="113.3 462 136.65 462 151 480.75 125.64 510 99 480.75 113.3 462"/></clipPath><clipPath id="clip-path-60"><polygon class="cls-1" points="115.28 465 133.68 465 145 479.84 125 503 104 479.84 115.28 465"/></clipPath><clipPath id="clip-path-61"><path class="cls-1" d="M131.69,485.42a1.92,1.92,0,0,0,0-2.09,1.32,1.32,0,0,0,.23-.77,1.69,1.69,0,0,0-.45-1.14,1.91,1.91,0,0,0-1.45-.57h-2.23a6.8,6.8,0,0,1-1.77-.14l0,0a9.33,9.33,0,0,0,.4-3.58,2.06,2.06,0,0,0-2.21-2.07,1.74,1.74,0,0,0-1.29.37c-.34.36-.27.87-.17,1.58a12.56,12.56,0,0,1,.14,1.79,5.48,5.48,0,0,1-2.07,3.86l-.16.12v6.15l.06.1c.16.24,1.06,1,6.06,1H130a1.91,1.91,0,0,0,1.45-.57,1.69,1.69,0,0,0,.45-1.14,1.33,1.33,0,0,0-.23-.77,1.92,1.92,0,0,0,0-2.09ZM117,489.16h3.08v-6.65H117Z"/></clipPath><clipPath id="clip-path-62"><path class="cls-1" d="M-52,576.13V559.38A1.38,1.38,0,0,0-53.38,558H-89.62A1.38,1.38,0,0,0-91,559.38v26.23A1.38,1.38,0,0,0-89.62,587H-68C-53.38,587-52,585.62-52,576.13Z"/></clipPath><clipPath id="clip-path-63"><rect class="cls-1" x="-69.6" y="571.48" width="13.95" height="2.11"/></clipPath><clipPath id="clip-path-64"><rect class="cls-1" x="-69.6" y="565" width="13.95" height="2.11"/></clipPath><clipPath id="clip-path-65"><path class="cls-1" d="M-65.46,578H-69.6v2.11h2.73A10.42,10.42,0,0,1-65.46,578Z"/></clipPath><clipPath id="clip-path-66"><path class="cls-1" d="M-74.49,576.19c2.17,1,2.83.93,2.83,2.78,0,.2,0,.28,0,.32H-87s0,.23,0-.32c0-1.85.66-1.76,2.83-2.78.74-.35,3.07-1.37,3.07-1.37a2.14,2.14,0,0,0,0-.91,4.12,4.12,0,0,1-1.18-2.28c-.51-.23-.66-1.19-.71-1.37s0-.62.39-.65a3,3,0,0,1-.15-.95c0-.08,0-.15,0-.23s0-.15,0-.23c0-1.76,1.53-2.73,3.42-2.73s3.42,1,3.42,2.73c0,.08,0,.15,0,.23s0,.15,0,.23a3,3,0,0,1-.15.95c.34,0,.43.49.39.65s-.2,1.14-.71,1.37a4.11,4.11,0,0,1-1.18,2.28,1.7,1.7,0,0,0,0,.91S-75.22,575.85-74.49,576.19Z"/></clipPath><clipPath id="clip-path-67"><ellipse class="cls-1" cx="-57.41" cy="584.69" rx="8.41" ry="8.31"/></clipPath><clipPath id="clip-path-68"><path class="cls-1" d="M-54.53,588.27l-.75-2.6,2.05-1.65a.68.68,0,0,0,.19-.27.43.43,0,0,0,0-.34.62.62,0,0,0-.19-.29.52.52,0,0,0-.33-.1l-2.59-.07-.86-2.56a.52.52,0,0,0-.19-.27.6.6,0,0,0-.33-.12.48.48,0,0,0-.3.12.76.76,0,0,0-.21.27l-.86,2.55-2.59.07a.67.67,0,0,0-.3.12.48.48,0,0,0-.19.29.44.44,0,0,0,0,.34.62.62,0,0,0,.16.27h0l2.05,1.65-.75,2.6a.57.57,0,0,0,0,.34.5.5,0,0,0,.19.27.45.45,0,0,0,.3.1h0a.5.5,0,0,0,.3-.1l2.14-1.53,2.14,1.53a.43.43,0,0,0,.28.1h0a.73.73,0,0,0,.3-.1h0a.87.87,0,0,0,.19-.29A.54.54,0,0,0-54.53,588.27Z"/></clipPath><clipPath id="clip-path-69"><circle class="cls-1" cx="226" cy="485" r="26"/></clipPath><clipPath id="clip-path-70"><path class="cls-1" d="M217,465.36l1.66,3.83a18,18,0,0,0-5.38,3.84,17.19,17.19,0,0,0,.23,23.92L210.43,500A21.71,21.71,0,0,1,204,484.86a20.84,20.84,0,0,1,5.81-14.56A23,23,0,0,1,217,465.36Zm23.93,34.34-3.08-3.07a16.4,16.4,0,0,0,5-12.13A16.1,16.1,0,0,0,238.15,473a27.12,27.12,0,0,0-5.51-4.1L234.3,465a17.44,17.44,0,0,1,6.88,5A21.43,21.43,0,0,1,247,484.53a20.36,20.36,0,0,1-6.15,15.07Z"/></clipPath><clipPath id="clip-path-71"><path class="cls-1" d="M215,467.26a2.26,2.26,0,1,0,1.13-2A2.26,2.26,0,0,0,215,467.26Z"/></clipPath><clipPath id="clip-path-72"><path class="cls-1" d="M237,498.26a2.26,2.26,0,1,0,1.13-2A2.26,2.26,0,0,0,237,498.26Z"/></clipPath><clipPath id="clip-path-73"><path class="cls-1" d="M229.35,477.81c.11.19.21.37.32.58a10.19,10.19,0,0,1,.73,1.9,12.42,12.42,0,0,1,2,.73c.19.09.38.19.57.3a7.51,7.51,0,0,0-1.49-2A7.74,7.74,0,0,0,229.35,477.81Zm-7.76,2.48a10.19,10.19,0,0,1,.73-1.9,5.69,5.69,0,0,1,.32-.58,7.65,7.65,0,0,0-2.12,1.47,7.51,7.51,0,0,0-1.49,2,4.07,4.07,0,0,1,.57-.3A10.66,10.66,0,0,1,221.59,480.29Zm3.71-.56v-2.48a4.05,4.05,0,0,0-1.53,1.83,8.62,8.62,0,0,0-.36.84C224,479.83,224.65,479.77,225.3,479.73Zm1.45-2.46v2.46a14.86,14.86,0,0,1,1.85.17,8.62,8.62,0,0,0-.36-.84A4.46,4.46,0,0,0,226.75,477.27Zm4.2,6.44h2.46a4.55,4.55,0,0,0-1.72-1.27c-.29-.13-.59-.26-.92-.37C230.86,482.59,230.92,483.13,231,483.71Zm-4.2,0h2.6a14.72,14.72,0,0,0-.27-2.13,13.08,13.08,0,0,0-2.33-.26Zm-4.09,0h2.64v-2.39a15.52,15.52,0,0,0-2.37.28A14.14,14.14,0,0,0,222.66,483.71Zm-4.07,0h2.46c0-.58.1-1.12.17-1.66-.32.11-.63.24-.92.37A4.57,4.57,0,0,0,218.59,483.71Zm2.43,1.42h-2.69a3.69,3.69,0,0,0,2,1.73c.29.13.59.26.92.37A18.41,18.41,0,0,1,221,485.13Zm4.28,0h-2.66a15.18,15.18,0,0,0,.29,2.57,15.52,15.52,0,0,0,2.37.28Zm4.07,0h-2.62V488a17.76,17.76,0,0,0,2.33-.26A18.28,18.28,0,0,0,229.37,485.13Zm4.3,0H231a15.45,15.45,0,0,1-.19,2.13c.32-.11.63-.24.92-.37A3.71,3.71,0,0,0,233.67,485.13ZM209,503.5l10.15-.19,1.3-4.5,12.71-.58,5.85-8.73-3.11-.13c-3.92,5.47-7.66,6.14-13.41,4.61v-.49c4.62.78,6.61.3,7.61-.58v-1.75C219.36,487.38,213.07,495.18,209,503.5Zm17-28a9.48,9.48,0,0,1,6.63,2.69,9,9,0,0,1,2.75,6.47,8.88,8.88,0,0,1-.59,3.21l-.36.52a15.77,15.77,0,0,1-2.54,2.85V490l-.23-.07A7.73,7.73,0,0,0,233,488a4.07,4.07,0,0,1-.57.3,11.4,11.4,0,0,1-2,.73l-.11.39a15.84,15.84,0,0,0-9.11-.52,9.06,9.06,0,0,1-1.57-.62c-.19-.09-.38-.19-.57-.3a6.68,6.68,0,0,0,.84,1.31,15.31,15.31,0,0,0-1.51.65,9,9,0,0,1,1-11.77A9.35,9.35,0,0,1,226,475.5Z"/></clipPath><clipPath id="clip-path-74"><path class="cls-1" d="M26,687.51a8.72,8.72,0,1,0-3.42,16.72,8.78,8.78,0,0,0,8.32-11.54l-6.83,6.51a3.56,3.56,0,1,1-4.9-5.18Z"/></clipPath><clipPath id="clip-path-75"><path class="cls-1" d="M33.36,690.8a12.82,12.82,0,0,1,1,4.7,11.8,11.8,0,1,1-11.8-11.75,11.61,11.61,0,0,1,5.16,1.17V672.59a19.87,19.87,0,0,0-5.16-.59,23.5,23.5,0,1,0,23.59,23.5,24.22,24.22,0,0,0-.44-4.7Z"/></clipPath><clipPath id="clip-path-76"><path class="cls-1" d="M41.3,683.91l-7,.3.6-6.1,3.43-3.42,1,5.06,5.22.89Zm9.7-5.06-9-2.08L40.55,668l-9.1,8.48v8.77l-9.85,8.92a1.83,1.83,0,0,0-.6,1.19A1.65,1.65,0,0,0,22.64,697c.3,0,.45-.15.75-.15l.15-.15.45-.45L34,687h8.81Z"/></clipPath><clipPath id="clip-path-77"><polygon class="cls-2" points="-65 669 -77.9 676.45 -77.9 691.35 -65 698.8 -52.1 691.35 -52.1 676.45 -65 669"/></clipPath><clipPath id="clip-path-78"><polygon class="cls-2" points="-90 696.36 -90 711.25 -77.1 718.71 -64.19 711.25 -64.19 696.36 -77.1 688.91 -90 696.36"/></clipPath><clipPath id="clip-path-79"><polygon class="cls-2" points="-66.81 696.36 -66.81 711.25 -53.9 718.71 -41 711.25 -41 696.36 -53.9 688.91 -66.81 696.36"/></clipPath><clipPath id="clip-path-80"><rect class="cls-1" x="-81.15" y="691.68" width="20.61" height="1.61" transform="translate(-635.14 284.89) rotate(-60)"/></clipPath><clipPath id="clip-path-81"><rect class="cls-1" x="-70.94" y="685.78" width="7" height="1.61" transform="translate(-628.33 284.89) rotate(-60)"/></clipPath><clipPath id="clip-path-82"><rect class="cls-1" x="-74.68" y="702.62" width="20.61" height="1.61"/></clipPath><clipPath id="clip-path-83"><rect class="cls-1" x="-59.96" y="682.18" width="1.61" height="20.61" transform="translate(-354.16 63.2) rotate(-30)"/></clipPath><clipPath id="clip-path-84"><path class="cls-3" d="M-69.08,678.28a5.9,5.9,0,0,1,8.35,0,5.9,5.9,0,0,1,0,8.35,5.9,5.9,0,0,1-8.35,0,5.9,5.9,0,0,1,0-8.35"/></clipPath><clipPath id="clip-path-85"><path class="cls-3" d="M-81.08,699.28a5.9,5.9,0,0,1,8.35,0,5.9,5.9,0,0,1,0,8.35,5.9,5.9,0,0,1-8.35,0,5.9,5.9,0,0,1,0-8.35"/></clipPath><clipPath id="clip-path-86"><path class="cls-3" d="M-57.08,699.28a5.9,5.9,0,0,1,8.35,0,5.9,5.9,0,0,1,0,8.35,5.9,5.9,0,0,1-8.35,0,5.9,5.9,0,0,1,0-8.35"/></clipPath><clipPath id="clip-path-87"><path class="cls-2" d="M-67.73,679.63a4,4,0,0,1,5.66,0,4,4,0,0,1,0,5.66,4,4,0,0,1-5.66,0,4,4,0,0,1,0-5.66"/></clipPath><clipPath id="clip-path-88"><path class="cls-2" d="M-55.73,700.59a4,4,0,0,1,5.66,0,4,4,0,0,1,0,5.66,4,4,0,0,1-5.66,0,4,4,0,0,1,0-5.66"/></clipPath><clipPath id="clip-path-89"><path class="cls-2" d="M-79.92,700.59a4,4,0,0,1,5.66,0,4,4,0,0,1,0,5.66,4,4,0,0,1-5.66,0,4,4,0,0,1,0-5.66"/></clipPath><clipPath id="clip-path-90"><rect class="cls-1" x="-91" y="791" width="42" height="3.41"/></clipPath><clipPath id="clip-path-91"><path class="cls-1" d="M-70.92,779.27a6.69,6.69,0,0,1-.08-1A6.13,6.13,0,0,1-65.06,772h5.13A6.13,6.13,0,0,1-54,778.29a6.17,6.17,0,0,1-4.91,6.2v2.65a.85.85,0,0,1-.54.79.89.89,0,0,1-.32.06.88.88,0,0,1-.63-.26l-3.07-3.15h-1.59A6,6,0,0,1-70.92,779.27Z"/></clipPath><clipPath id="clip-path-92"><path class="cls-1" d="M-58.15,772.54a13.77,13.77,0,0,0,.15-1.95c0-6.94-5.17-12.59-11.52-12.59h-10C-85.83,758-91,763.65-91,770.59c0,6.23,4.07,11.37,9.52,12.4v5.31a1.71,1.71,0,0,0,1.06,1.58,1.67,1.67,0,0,0,.63.12,1.68,1.68,0,0,0,1.22-.53l6-6.3h3.09C-63.81,783.18-59,778.7-58.15,772.54Z"/></clipPath><clipPath id="clip-path-93"><path class="cls-1" d="M-59.94,772a5.61,5.61,0,0,1,1.82.3l0,.24c-.85,5.92-5.29,10.28-10.7,10.62a6.36,6.36,0,0,1-2.08-3.89,6.69,6.69,0,0,1-.08-1A6.13,6.13,0,0,1-65.06,772Z"/></clipPath><clipPath id="clip-path-94"><path class="cls-1" d="M-82.68,766.7h16.19a.85.85,0,0,1,.82.88.85.85,0,0,1-.82.88H-82.68a.85.85,0,0,1-.82-.88A.85.85,0,0,1-82.68,766.7Z"/></clipPath><clipPath id="clip-path-95"><path class="cls-1" d="M-73,774.85h-9.72a.85.85,0,0,1-.82-.88.85.85,0,0,1,.82-.88H-73a.85.85,0,0,1,.82.88.85.85,0,0,1-.82.88Z"/></clipPath><clipPath id="clip-path-96"><rect class="cls-1" x="-1" y="790" width="42" height="3"/></clipPath><clipPath id="clip-path-97"><rect class="cls-1" x="-1" y="759" width="42" height="30"/></clipPath><clipPath id="clip-path-98"><path class="cls-1" d="M30.33,767.68a1.52,1.52,0,0,1,.8-.09.85.85,0,0,1,.54.3,2.51,2.51,0,0,0,.71.8,1.43,1.43,0,0,0,.64.15,1.58,1.58,0,0,0,.8-.18.44.44,0,0,0,.28-.38q0-.77-1.87-1.61t-1.91-2a1.52,1.52,0,0,1,.88-1.26A3.62,3.62,0,0,1,33,763a4.27,4.27,0,0,1,1.62.28,3.5,3.5,0,0,1,1.21.9.65.65,0,0,1,.18.45.58.58,0,0,1-.4.38,1.44,1.44,0,0,1-.77.09.84.84,0,0,1-.56-.27,1.72,1.72,0,0,0-.63-.56,1.7,1.7,0,0,0-.66-.13,1,1,0,0,0-.54.14.52.52,0,0,0-.22.43q0,.71,1.65,1.47,2.13,1,2.13,2.11a1.46,1.46,0,0,1-.82,1.22A4.12,4.12,0,0,1,33,770a4,4,0,0,1-1.53-.3,2.82,2.82,0,0,1-1.31-1.11,1.12,1.12,0,0,1-.18-.53Q30,767.87,30.33,767.68Z"/></clipPath><clipPath id="clip-path-99"><path class="cls-1" d="M4,763.36Q4,763,5,763t1.15.36l2,3.38v-3.38q0-.36,1-.36t1,.36v6.29q0,.36-1,.36t-1.15-.36l-2-3.36v3.36q0,.36-1,.36t-1-.36Z"/></clipPath><clipPath id="clip-path-100"><path class="cls-1" d="M16.81,785H3.19a1,1,0,1,1,0-2H16.81a1,1,0,1,1,0,2Z"/></clipPath><clipPath id="clip-path-101"><path class="cls-1" d="M16.81,778H3.19a1,1,0,1,1,0-2H16.81a1,1,0,1,1,0,2Z"/></clipPath><clipPath id="clip-path-102"><path class="cls-1" d="M17,765.9q1.07,0,1.08.55T17,767H14.91v1.65a.23.23,0,0,0,.1.09,1,1,0,0,0,.35.06H18q1,0,1,.57T18,770H14q-1,0-1-.55v-5.86q0-.59,1-.59h4q1,0,1,.57t-1,.57H15.36a.8.8,0,0,0-.36.08.1.1,0,0,0-.08.07v1.6H17Z"/></clipPath><clipPath id="clip-path-103"><path class="cls-1" d="M21.14,764.17a1.12,1.12,0,0,1,.55-.15,1.42,1.42,0,0,1,.65.08.54.54,0,0,1,.32.41l.47,3.13.44-1.22q.19-.39.87-.39t.83.39l.4,1.2.65-3.13a.5.5,0,0,1,.37-.4,1.65,1.65,0,0,1,.71-.07,1,1,0,0,1,.52.18.42.42,0,0,1,.07.38l-1,5a.47.47,0,0,1-.22.28,1.27,1.27,0,0,1-.59.12,1,1,0,0,1-.56-.13.85.85,0,0,1-.3-.36l-.93-1.66-.91,1.69a.89.89,0,0,1-.25.31,1.09,1.09,0,0,1-.53.15,1.42,1.42,0,0,1-.62-.1.35.35,0,0,1-.25-.28l-.78-5A.37.37,0,0,1,21.14,764.17Z"/></clipPath><clipPath id="clip-path-104"><path class="cls-1" d="M36.81,785H23.19a1,1,0,1,1,0-2H36.81a1,1,0,1,1,0,2Z"/></clipPath><clipPath id="clip-path-105"><path class="cls-1" d="M36.81,778H23.19a1,1,0,1,1,0-2H36.81a1,1,0,1,1,0,2Z"/></clipPath><clipPath id="clip-path-106"><path class="cls-1" d="M-52,1006.13V989.38A1.38,1.38,0,0,0-53.38,988H-89.62A1.38,1.38,0,0,0-91,989.38v26.23a1.38,1.38,0,0,0,1.38,1.38H-68C-53.38,1017-52,1015.62-52,1006.13Z"/></clipPath><clipPath id="clip-path-107"><rect class="cls-1" x="-69.6" y="1001.48" width="13.95" height="2.11"/></clipPath><clipPath id="clip-path-108"><rect class="cls-1" x="-69.6" y="995" width="13.95" height="2.11"/></clipPath><clipPath id="clip-path-109"><path class="cls-1" d="M-65.46,1008H-69.6v2.11h2.73A10.42,10.42,0,0,1-65.46,1008Z"/></clipPath><clipPath id="clip-path-110"><path class="cls-1" d="M-74.49,1006.19c2.17,1,2.83.93,2.83,2.78,0,.2,0,.28,0,.32H-87s0,.23,0-.32c0-1.85.66-1.76,2.83-2.78.74-.35,3.07-1.37,3.07-1.37a2.14,2.14,0,0,0,0-.91,4.12,4.12,0,0,1-1.18-2.28c-.51-.23-.66-1.19-.71-1.37s0-.62.39-.65a3,3,0,0,1-.15-.95c0-.08,0-.15,0-.23s0-.15,0-.23c0-1.76,1.53-2.73,3.42-2.73s3.42,1,3.42,2.73c0,.08,0,.15,0,.23s0,.15,0,.23a3,3,0,0,1-.15.95c.34,0,.43.49.39.65s-.2,1.14-.71,1.37a4.11,4.11,0,0,1-1.18,2.28,1.7,1.7,0,0,0,0,.91S-75.22,1005.85-74.49,1006.19Z"/></clipPath><clipPath id="clip-path-111"><ellipse class="cls-1" cx="-57.41" cy="1014.69" rx="8.41" ry="8.31"/></clipPath><clipPath id="clip-path-112"><path class="cls-1" d="M-54.53,1018.27l-.75-2.6,2.05-1.65a.68.68,0,0,0,.19-.27.43.43,0,0,0,0-.34.62.62,0,0,0-.19-.29.52.52,0,0,0-.33-.1l-2.59-.07-.86-2.56a.52.52,0,0,0-.19-.27.6.6,0,0,0-.33-.12.48.48,0,0,0-.3.12.76.76,0,0,0-.21.27l-.86,2.55-2.59.07a.67.67,0,0,0-.3.12.48.48,0,0,0-.19.29.44.44,0,0,0,0,.34.62.62,0,0,0,.16.27h0l2.05,1.65-.75,2.6a.57.57,0,0,0,0,.34.5.5,0,0,0,.19.27.45.45,0,0,0,.3.1h0a.5.5,0,0,0,.3-.1l2.14-1.53,2.14,1.53a.43.43,0,0,0,.28.1h0a.73.73,0,0,0,.3-.1h0a.87.87,0,0,0,.19-.29A.54.54,0,0,0-54.53,1018.27Z"/></clipPath><clipPath id="clip-path-113"><path class="cls-1" d="M38,1006.13V989.38A1.38,1.38,0,0,0,36.62,988H.38A1.38,1.38,0,0,0-1,989.38v26.23A1.38,1.38,0,0,0,.38,1017H22C36.62,1017,38,1015.62,38,1006.13Z"/></clipPath><clipPath id="clip-path-114"><rect class="cls-1" x="20.4" y="1001.48" width="13.95" height="2.11"/></clipPath><clipPath id="clip-path-115"><rect class="cls-1" x="20.4" y="995" width="13.95" height="2.11"/></clipPath><clipPath id="clip-path-116"><path class="cls-1" d="M24.54,1008H20.4v2.11h2.73A10.42,10.42,0,0,1,24.54,1008Z"/></clipPath><clipPath id="clip-path-117"><ellipse class="cls-1" cx="32.59" cy="1014.69" rx="8.41" ry="8.31"/></clipPath><clipPath id="clip-path-118"><path class="cls-1" d="M35.47,1018.27l-.75-2.6,2.05-1.65a.68.68,0,0,0,.19-.27.43.43,0,0,0,0-.34.62.62,0,0,0-.19-.29.52.52,0,0,0-.33-.1l-2.59-.07-.86-2.56a.52.52,0,0,0-.19-.27.6.6,0,0,0-.33-.12.48.48,0,0,0-.3.12.76.76,0,0,0-.21.27l-.86,2.55-2.59.07a.67.67,0,0,0-.3.12.48.48,0,0,0-.19.29.44.44,0,0,0,0,.34.62.62,0,0,0,.16.27h0l2.05,1.65-.75,2.6a.57.57,0,0,0,0,.34.5.5,0,0,0,.19.27.45.45,0,0,0,.3.1h0a.5.5,0,0,0,.3-.1l2.14-1.53,2.14,1.53a.43.43,0,0,0,.28.1h0a.73.73,0,0,0,.3-.1h0a.87.87,0,0,0,.19-.29A.54.54,0,0,0,35.47,1018.27Z"/></clipPath><clipPath id="clip-path-119"><path class="cls-1" d="M17.24,1009a.74.74,0,0,1-.65-.46l-2.48-5.11a1.08,1.08,0,0,1,.26-1.29.68.68,0,0,1,1,.32l2.48,5.11a1.08,1.08,0,0,1-.26,1.29A.65.65,0,0,1,17.24,1009Z"/></clipPath><clipPath id="clip-path-120"><path class="cls-1" d="M17.24,1009a.55.55,0,0,1-.19,0l-2.48-.88a1.14,1.14,0,0,1-.55-1.29c.1-.56.52-.91.92-.76l2.48.89a1.14,1.14,0,0,1,.55,1.29C17.89,1008.68,17.58,1009,17.24,1009Z"/></clipPath><clipPath id="clip-path-121"><path class="cls-1" d="M14.7,1010a.67.67,0,0,1-.56-.34,1,1,0,0,1-.1-.75l.61-2.34a.68.68,0,0,1,.87-.54.88.88,0,0,1,.46,1l-.61,2.34A.72.72,0,0,1,14.7,1010Z"/></clipPath><clipPath id="clip-path-122"><path class="cls-1" d="M3.76,1009a.65.65,0,0,1-.39-.14,1.08,1.08,0,0,1-.26-1.29l2.48-5.11a.68.68,0,0,1,1-.32,1.08,1.08,0,0,1,.26,1.29l-2.48,5.11A.74.74,0,0,1,3.76,1009Zm10.39,1a.85.85,0,0,1-.75-.45l-2.29-4.2a.92.92,0,0,1,.32-1.23.84.84,0,0,1,1.17.34l2.28,4.2a.92.92,0,0,1-.32,1.23.82.82,0,0,1-.42.12Z"/></clipPath><clipPath id="clip-path-123"><path class="cls-1" d="M3.76,1009c-.34,0-.65-.32-.73-.79a1.14,1.14,0,0,1,.55-1.29l2.48-.88c.41-.14.82.2.92.76a1.14,1.14,0,0,1-.55,1.29l-2.48.88A.54.54,0,0,1,3.76,1009Z"/></clipPath><clipPath id="clip-path-124"><path class="cls-1" d="M7.3,1010a.72.72,0,0,1-.67-.59L6,1007.08a.88.88,0,0,1,.46-1,.68.68,0,0,1,.87.55l.61,2.33a1,1,0,0,1-.1.74A.67.67,0,0,1,7.3,1010Z"/></clipPath><clipPath id="clip-path-125"><path class="cls-1" d="M7.64,1010a.5.5,0,0,1-.32-.12,1.11,1.11,0,0,1-.24-1.23l1.71-4.2c.18-.43.57-.58.88-.34a1.11,1.11,0,0,1,.24,1.23l-1.71,4.2a.64.64,0,0,1-.56.45Z"/></clipPath><clipPath id="clip-path-126"><path class="cls-1" d="M-58.21,1085H-81.79a2.26,2.26,0,0,0-2.21,2.39v22.22a2.31,2.31,0,0,0,2.21,2.39h23.58a2.36,2.36,0,0,0,2.21-2.39v-22.22a2.31,2.31,0,0,0-2.21-2.39Z"/></clipPath><clipPath id="clip-path-127"><path class="cls-1" d="M-76.5,1088a2.52,2.52,0,0,1,2.5,2.5,2.47,2.47,0,0,1-2.5,2.5,2.52,2.52,0,0,1-2.5-2.5,2.52,2.52,0,0,1,2.5-2.5Z"/></clipPath><clipPath id="clip-path-128"><path class="cls-1" d="M-79.92,1107a1.29,1.29,0,0,1-.71-.23.92.92,0,0,1-.08-1.41l4.91-6.81a1.1,1.1,0,0,1,1.43-.16l4.28,3,7.69-8.15c.4-.39,2.3-2.43,3.41-.16v13.86c0,.08-20.92.08-20.92.08Z"/></clipPath><clipPath id="clip-path-129"><polygon class="cls-1" points="-53 1081 -59 1081 -59 1078 -50 1078 -50 1087 -53 1087 -53 1081"/></clipPath><clipPath id="clip-path-130"><polygon class="cls-1" points="-53 1115 -53 1109 -50 1109 -50 1118 -59 1118 -59 1115 -53 1115"/></clipPath><clipPath id="clip-path-131"><polygon class="cls-1" points="-87 1115 -81 1115 -81 1118 -90 1118 -90 1109 -87 1109 -87 1115"/></clipPath><clipPath id="clip-path-132"><polygon class="cls-1" points="-87 1081 -87 1087 -90 1087 -90 1078 -81 1078 -81 1081 -87 1081"/></clipPath><clipPath id="clip-path-133"><polygon class="cls-1" points="-53 1192 -59 1192 -59 1189 -50 1189 -50 1198 -53 1198 -53 1192"/></clipPath><clipPath id="clip-path-134"><polygon class="cls-1" points="-53 1226 -53 1220 -50 1220 -50 1229 -59 1229 -59 1226 -53 1226"/></clipPath><clipPath id="clip-path-135"><polygon class="cls-1" points="-87 1226 -81 1226 -81 1229 -90 1229 -90 1220 -87 1220 -87 1226"/></clipPath><clipPath id="clip-path-136"><polygon class="cls-1" points="-87 1192 -87 1198 -90 1198 -90 1189 -81 1189 -81 1192 -87 1192"/></clipPath><clipPath id="clip-path-137"><path class="cls-1" d="M-67.65,1205.7l-.43.31a1.93,1.93,0,0,0-.85,1.63,2,2,0,0,0,1.94,2h3.8a3.16,3.16,0,0,1,2.27,1,3.28,3.28,0,0,1,.93,2.31,3.22,3.22,0,0,1-3.19,3.25H-79.74a3.23,3.23,0,0,1-2.31-1,3.35,3.35,0,0,1-1-2.35,3.17,3.17,0,0,1,3.14-3.2H-76a2,2,0,0,0,1.94-2,1.94,1.94,0,0,0-.86-1.63,6.55,6.55,0,0,1-2.89-6.6,6.45,6.45,0,0,1,4.88-5.24l.27-.06a6.3,6.3,0,0,1,5.13,1.31,6.55,6.55,0,0,1,2.4,5.09,6.54,6.54,0,0,1-2.34,5h0Zm5.11,11.7a1.29,1.29,0,0,1,1.28,1.3,1.29,1.29,0,0,1-1.28,1.3H-80.43a1.29,1.29,0,0,1-1.28-1.3,1.29,1.29,0,0,1,1.28-1.3Z"/></clipPath><clipPath id="clip-path-138"><path class="cls-1" d="M-58.54,1223a1.29,1.29,0,0,0,1.28-1.31,1.29,1.29,0,0,0-1.28-1.31H-76.43a1.29,1.29,0,0,0-1.28,1.31,1.29,1.29,0,0,0,1.28,1.31ZM-72,1212.54h-3.88a3.18,3.18,0,0,0-3.14,3.22,3.38,3.38,0,0,0,1,2.36,3.22,3.22,0,0,0,2.31,1h16.55a3.23,3.23,0,0,0,3.19-3.27,3.31,3.31,0,0,0-.93-2.33,3.15,3.15,0,0,0-2.27-1H-63a2,2,0,0,1-1.94-2,2,2,0,0,1,.85-1.65,6.43,6.43,0,0,0,.64-.48,8,8,0,0,1-6.27-7.89,8.18,8.18,0,0,1,.8-3.55,6.48,6.48,0,0,0-4.88,5.28,6.61,6.61,0,0,0,2.89,6.64,2,2,0,0,1,.86,1.65A2,2,0,0,1-72,1212.54Z"/></clipPath><clipPath id="clip-path-139"><path class="cls-1" d="M-64.17,1209a7.16,7.16,0,0,0,2.17-5.23,7.16,7.16,0,0,0-2.23-5.29,5.39,5.39,0,0,0-5-1.31,9.38,9.38,0,0,0,0,7.34A7.53,7.53,0,0,0-64.17,1209Z"/></clipPath><clipPath id="clip-path-140"><path class="cls-1" d="M805.64,34.35c6.73,12.4,15.92,20.47,20.53,18s2.88-14.49-3.85-26.9S806.4,5,801.79,7.45,798.91,21.94,805.64,34.35Z"/></clipPath><clipPath id="clip-path-141"><ellipse class="cls-1" cx="813.98" cy="30.11" rx="25.96" ry="9.44"/></clipPath><clipPath id="clip-path-142"><path class="cls-1" d="M799.48,52.19c2.95,1.89,8.44-.61,14.4-6.54a67.69,67.69,0,0,0,14.5-22.22c3-7.82,3-13.8.1-15.68s-8.44.61-14.4,6.54a67.69,67.69,0,0,0-14.5,22.22C796.57,44.33,796.54,50.31,799.48,52.19Z"/></clipPath><clipPath id="clip-path-143"><ellipse class="cls-1" cx="814.03" cy="30.02" rx="6.53" ry="6.47"/></clipPath><clipPath id="clip-path-144"><ellipse class="cls-1" cx="804.49" cy="12.63" rx="2.22" ry="2.19"/></clipPath><clipPath id="clip-path-145"><ellipse class="cls-1" cx="834.62" cy="30.11" rx="2.22" ry="2.19"/></clipPath><clipPath id="clip-path-146"><path class="cls-1" d="M811.49,29.94A2.38,2.38,0,0,0,812.69,32a2.43,2.43,0,0,0,2.41,0,2.38,2.38,0,0,0,0-4.13,2.43,2.43,0,0,0-2.41,0A2.38,2.38,0,0,0,811.49,29.94Z"/></clipPath><clipPath id="clip-path-147"><path class="cls-1" d="M800.06,48a2.19,2.19,0,0,0,1.11,1.9,2.23,2.23,0,0,0,2.22,0,2.18,2.18,0,0,0,0-3.8,2.23,2.23,0,0,0-2.22,0A2.19,2.19,0,0,0,800.06,48Z"/></clipPath><clipPath id="clip-path-148"><path class="cls-1" d="M890.06,30.44A25.94,25.94,0,1,0,903,8,25.94,25.94,0,0,0,890.06,30.44Z"/></clipPath><clipPath id="clip-path-149"><path class="cls-1" d="M904.39,30.56a11.77,11.77,0,1,0,5.89-10.2A11.77,11.77,0,0,0,904.39,30.56Z"/></clipPath><clipPath id="clip-path-150"><path class="cls-1" d="M931.28,31.63v-.91A15.12,15.12,0,0,0,927.4,20.6a1.65,1.65,0,0,0-2.56.17,1.69,1.69,0,0,0,.09,2,11.63,11.63,0,0,1,3,7.82,6.68,6.68,0,0,1,3.25.86Z"/></clipPath><clipPath id="clip-path-151"><path class="cls-1" d="M932.53,32a6.58,6.58,0,1,1-.06,0Z"/></clipPath><clipPath id="clip-path-152"><path class="cls-1" d="M926.41,39.84A2.87,2.87,0,1,0,925,37.35,2.87,2.87,0,0,0,926.41,39.84Z"/></clipPath><clipPath id="clip-path-153"><path class="cls-1" d="M909.48,17.09A15.12,15.12,0,0,0,901.81,26a1.62,1.62,0,0,0,1.41,2.09A1.68,1.68,0,0,0,905,26.91a11.74,11.74,0,0,1,5.33-6.49,6.68,6.68,0,0,1-.88-3.28S909.48,17.11,909.48,17.09Z"/></clipPath><clipPath id="clip-path-154"><path class="cls-1" d="M916.19,10.45a6.72,6.72,0,0,0-6.71,6.64v.08a6.74,6.74,0,1,0,6.72-6.72Z"/></clipPath><clipPath id="clip-path-155"><circle class="cls-1" cx="916.19" cy="17.17" r="2.89"/></clipPath><clipPath id="clip-path-156"><path class="cls-1" d="M920.47,43.15a1.68,1.68,0,0,0-1.9-1,11.44,11.44,0,0,1-2.33.26,11.55,11.55,0,0,1-5.9-1.62,6.63,6.63,0,0,1-2.33,2.4h-.08a15.12,15.12,0,0,0,8.36,2.55,14.79,14.79,0,0,0,3.07-.33,1.65,1.65,0,0,0,1.16-2.21Z"/></clipPath><clipPath id="clip-path-157"><path class="cls-1" d="M910.37,34a6.72,6.72,0,1,0-2.55,9.31h.08a6.63,6.63,0,0,0,2.33-2.4A6.7,6.7,0,0,0,910.37,34Z"/></clipPath><clipPath id="clip-path-158"><path class="cls-1" d="M902,38.8a2.89,2.89,0,1,1,1.76,1.35A2.89,2.89,0,0,1,902,38.8Z"/></clipPath></defs><title>AIquanliucheng</title><g class="cls-4"><rect class="cls-5" x="27.09" y="42.56" width="5.38" height="6.91"/><rect class="cls-6" x="4.07" y="8.03" width="51.8" height="34.53"/><rect class="cls-7" x="4.07" y="36.39" width="51.8" height="2.46"/></g><path class="cls-8" d="M22.81,28.24v.15a.22.22,0,0,1-.09.2.38.38,0,0,1-.22.07h-3a.4.4,0,0,1-.4-.28l-2.71-4.49v-.14a.42.42,0,0,1,0-.08,1.89,1.89,0,0,1,0-.22L19,19a.36.36,0,0,1,.39-.28h3a.38.38,0,0,1,.22.07.22.22,0,0,1,.09.2v.15l-2.71,4.6Zm11.63-11.9a.38.38,0,0,1,0,.15L29.63,31a.36.36,0,0,1-.37.28H26.13c-.21,0-.31-.09-.31-.25a.38.38,0,0,1,0-.15l4.85-14.61A.35.35,0,0,1,31,16h3.13a.28.28,0,0,1,.28.3Zm2.67,2.73v-.15a.22.22,0,0,1,.09-.2.38.38,0,0,1,.22-.07h3a.37.37,0,0,1,.39.28l2.67,4.49a1.72,1.72,0,0,1,0,.22.4.4,0,0,1,0,.08v.14l-2.7,4.49a.4.4,0,0,1-.4.28H37.33a.38.38,0,0,1-.22-.07.22.22,0,0,1-.09-.2v-.15l2.76-4.6Zm0,0"/><rect class="cls-5" x="16.73" y="49.27" width="26.47" height="3.65"/><path class="cls-90" d="M-69.08,678.28a5.9,5.9,0,0,1,8.35,0,5.9,5.9,0,0,1,0,8.35,5.9,5.9,0,0,1-8.35,0,5.9,5.9,0,0,1,0-8.35"/><g class="cls-91"><rect class="cls-92" x="-498.87" y="-261.13" width="2065.85" height="3686.06"/></g><path class="cls-90" d="M-81.08,699.28a5.9,5.9,0,0,1,8.35,0,5.9,5.9,0,0,1,0,8.35,5.9,5.9,0,0,1-8.35,0,5.9,5.9,0,0,1,0-8.35"/><g class="cls-93"><rect class="cls-92" x="-510.87" y="-240.13" width="2065.85" height="3686.06"/></g><path class="cls-90" d="M-57.08,699.28a5.9,5.9,0,0,1,8.35,0,5.9,5.9,0,0,1,0,8.35,5.9,5.9,0,0,1-8.35,0,5.9,5.9,0,0,1,0-8.35"/><g class="cls-94"><rect class="cls-92" x="-486.87" y="-240.13" width="2065.85" height="3686.06"/></g></svg>